<svg width="180" height="87" viewBox="0 0 180 87" fill="none" xmlns="http://www.w3.org/2000/svg">
<path fill-rule="evenodd" clip-rule="evenodd" d="M40.1829 75.3562C43.6209 73.2255 46.5105 70.6255 48.9552 67.918C50.7056 71.4872 54.2181 73.9233 57.9428 73.9233C60.8131 73.9233 63.6833 72.4904 65.6566 69.8037C66.3742 72.3113 68.1681 73.9233 71.2178 73.9233C73.5063 73.9233 78.4955 71.5913 83.0194 68.1358L82.5193 70.6992C82.3399 71.4156 82.3399 71.953 82.3399 72.3112C82.5193 73.3859 83.2368 73.9233 84.3132 73.9233C86.4659 73.9233 89.5155 71.953 90.2331 68.7289L91.3095 64.251C92.5652 58.5193 100.997 49.9217 103.329 49.9217C103.508 49.9217 103.867 50.1008 103.867 50.459C103.938 51.0278 103.529 52.1044 102.931 53.6777C102.022 56.0684 100.678 59.6059 99.9202 64.251C99.5615 65.6839 99.5615 67.1168 99.7409 68.1915C100.1 71.5947 102.073 73.9233 105.84 73.9233C109.064 73.9233 116.054 71.1755 120.953 65.6801C121.322 68.6631 121.954 71.2003 122.882 72.8487C123.241 73.5651 124.138 73.7442 125.035 73.7442C126.112 73.7442 127.547 73.386 129.161 72.4904C132.928 70.5201 137.772 65.8631 142.436 59.0567C143.154 59.2358 143.692 59.2358 144.23 59.2358C146.092 59.2358 148.172 58.5799 150.103 57.4193C149.301 59.8397 148.988 62.3117 149.253 64.6092C149.971 69.9827 154.456 74.1024 159.299 74.1024C161.99 74.1024 164.86 72.4903 166.834 69.9827C167.551 73.3859 169.704 76.9682 175.086 79.1176C175.444 79.2967 175.803 79.2967 176.162 79.2967C177.238 79.2967 177.956 78.5803 177.776 77.6847C177.776 77.3265 177.597 76.7891 177.059 76.4309C175.803 75.3562 174.368 73.3859 174.009 70.3409C173.83 68.908 173.83 67.1169 174.727 65.3257C175.803 60.4896 175.983 59.0566 175.983 58.5193C175.803 57.2655 174.906 56.7281 173.83 56.7281C171.677 56.7281 168.627 58.8775 167.91 61.9225C166.654 66.5795 163.425 69.6245 161.272 69.6245C158.582 69.6245 157.146 66.7586 156.788 63.7136C155.891 56.1908 160.555 47.0558 167.551 47.0558C169.524 47.0558 171.857 47.7723 172.036 49.9217C172.256 51.9027 171.055 52.396 170.137 52.7728C169.561 53.0092 169.096 53.1997 169.166 53.6831C169.345 55.1161 171.677 55.4743 173.292 55.4743C174.727 55.4743 179.391 54.3996 178.673 49.2052C178.135 45.0856 173.65 43.1153 168.627 43.1153C162.631 43.1153 157.528 46.1467 154.053 50.3414C153.572 50.6246 153.065 51.131 152.482 51.7129C151.406 52.9668 149.253 54.2206 146.562 54.2206C146.203 54.2206 145.486 54.0415 145.486 54.0415C147.28 50.6383 148.536 47.0559 148.536 44.011C148.536 38.9957 145.486 36.4881 142.077 36.4881C137.772 36.4881 133.287 40.2495 133.287 47.7724C133.287 52.2503 135.081 55.8326 138.131 57.8029C134.543 63.5346 129.699 68.3708 128.982 68.3708C128.734 68.3708 128.657 68.1146 128.575 67.8381C128.538 67.7141 128.499 67.5861 128.444 67.4752C127.905 65.5049 127.367 61.5643 127.367 59.2358C127.367 54.937 128.085 50.6383 129.699 46.1604C129.879 45.623 130.058 45.0857 130.058 44.7274C130.058 43.4736 129.161 42.9363 128.085 42.9363C125.932 42.9363 122.524 45.4439 121.627 48.1306C120.909 50.6383 120.55 54.2206 120.55 58.5194C120.55 59.3077 120.563 60.0897 120.589 60.8598C116.308 66.6221 111.025 68.5498 109.428 68.5498C107.455 68.5498 107.096 66.7586 107.455 66.0422C108.71 60.8478 110.325 54.937 111.76 50.8173C112.478 48.847 112.836 47.0558 112.657 45.9811C112.298 44.0109 111.043 43.1153 109.249 43.1153C104.943 43.1153 98.1263 47.4141 93.6415 53.3249L95.0767 46.8767C95.2561 46.1603 95.2561 45.6229 95.2561 45.2647C95.0767 44.0109 94.3591 43.4735 93.2828 43.4735C88.2598 43.4735 87.3628 45.9811 86.8247 48.4888C86.7208 49.1112 85.2931 56.4625 84.1098 62.5397C80.2818 66.0476 75.9925 68.3708 74.8056 68.3708C73.3705 68.3708 72.8323 67.296 72.8323 66.4005C72.8323 65.7819 73.1889 64.0953 73.5257 62.5019C73.7741 61.3269 74.0119 60.2022 74.088 59.5941C74.2674 58.8776 74.2674 58.3402 74.2674 57.982C74.0881 56.9073 73.1911 56.37 72.1147 56.37C69.962 56.37 66.9124 58.5194 66.1948 61.5643C65.1185 66.2214 61.8894 69.2663 59.7367 69.2663C57.0458 69.2663 55.6107 66.4005 55.2519 63.5346C54.355 57.0864 58.481 46.6977 66.0154 46.6977C68.1681 46.6977 70.3208 47.4142 70.5002 49.5636C70.7175 51.6241 69.6194 52.1087 68.7589 52.4885C68.1983 52.7359 67.7386 52.9388 67.8093 53.5041C67.9887 54.937 70.3208 55.2953 71.756 55.2953C73.3705 55.2953 77.8553 54.2206 77.1377 49.0262C76.5995 44.9065 72.2941 42.7571 67.0918 42.7571C55.0262 42.7571 46.9971 54.6728 47.8649 64.1187C44.8008 67.6987 41.7395 69.8516 36.2363 72.6694C33.1866 74.2815 29.5988 75.1771 26.3698 75.1771C16.3238 75.1771 11.4803 66.0421 10.5833 58.161C8.07181 38.1 26.011 10.337 38.389 10.337C41.2593 10.337 43.7708 12.8447 44.3089 16.7852C45.0265 22.8752 44.8471 27.174 38.5684 32.3683C37.8508 32.9057 37.6714 33.8013 38.0302 34.3386C38.5684 35.0551 40.3623 35.2342 43.7708 33.443C50.5876 30.0398 52.9197 24.8454 52.2022 18.7555C51.4846 11.9491 45.5647 6.39648 37.6714 6.39648C33.7248 6.39648 29.5988 7.47118 25.8316 9.79969C9.50694 19.8302 -1.07717 42.3988 0.896142 59.594C1.61371 65.1466 3.9458 71.0574 8.2512 75.1771C11.1215 77.8638 16.3238 81.0879 22.6025 81.0879C29.4194 81.0879 35.16 78.5803 40.1829 75.3562ZM141.001 51.7129C139.207 49.7427 137.772 46.6977 137.772 43.8318C137.772 42.2198 138.31 40.4286 139.566 40.4286C140.642 40.4286 142.077 42.0407 142.077 45.8021C142.077 47.7724 141.719 49.7427 141.001 51.7129Z" fill="white"/>
</svg>
