<svg width="244" height="87" viewBox="0 0 244 87" fill="none" xmlns="http://www.w3.org/2000/svg">
<path fill-rule="evenodd" clip-rule="evenodd" d="M31.38 9.04199C14.0426 9.04199 0 23.1472 0 40.5621C0 54.5098 8.98253 66.2904 21.4561 70.4668C23.0251 70.7426 23.6135 69.797 23.6135 68.9696C23.6135 68.221 23.5743 65.7388 23.5743 63.099C15.69 64.5568 13.6503 61.1684 13.0227 59.3954C12.6697 58.4892 11.1399 55.6918 9.80626 54.9432C8.70796 54.3522 7.13896 52.8944 9.76704 52.855C12.2382 52.8156 14.0033 55.1402 14.5917 56.0858C17.4159 60.8532 21.9268 59.5136 23.7312 58.6862C24.0057 56.6374 24.8295 55.2584 25.7316 54.4704C18.7496 53.6824 11.4537 50.9638 11.4537 38.9073C11.4537 35.4795 12.6697 32.6427 14.6702 30.4363C14.3564 29.6483 13.2581 26.4175 14.984 22.0834C14.984 22.0834 17.612 21.256 23.6135 25.3143C26.1239 24.6051 28.7912 24.2505 31.4585 24.2505C34.1258 24.2505 36.7931 24.6051 39.3035 25.3143C45.3049 21.2166 47.933 22.0834 47.933 22.0834C49.6589 26.4175 48.5606 29.6483 48.2468 30.4363C50.2473 32.6427 51.4633 35.4401 51.4633 38.9073C51.4633 51.0032 44.1282 53.6824 37.1461 54.4704C38.2836 55.4554 39.2643 57.3466 39.2643 60.3016C39.2643 64.5174 39.225 67.9058 39.225 68.9696C39.225 69.797 39.8134 70.782 41.3824 70.4668C47.6119 68.3544 53.0251 64.3329 56.86 58.9684C60.6949 53.6038 62.7584 47.1664 62.7601 40.5621C62.7601 23.1472 48.7175 9.04199 31.38 9.04199Z" fill="white"/>
<path d="M146.288 55.7761H146.215C146.248 55.7761 146.27 55.8129 146.303 55.8165H146.325L146.288 55.7798V55.7761ZM146.303 55.8165C145.963 55.8202 145.106 56.0004 144.202 56.0004C141.346 56.0004 140.358 54.6766 140.358 52.9482V41.4344H146.179C146.508 41.4344 146.764 41.1402 146.764 40.7357V34.4842C146.764 34.1533 146.472 33.8591 146.179 33.8591H140.358V26.0999C140.358 25.8057 140.175 25.6218 139.845 25.6218H131.937C131.608 25.6218 131.425 25.8057 131.425 26.0999V34.0797C131.425 34.0797 127.434 35.0726 127.178 35.1094C126.885 35.1829 126.702 35.4404 126.702 35.7345V40.7357C126.702 41.1402 126.995 41.4344 127.325 41.4344H131.388V53.4961C131.388 62.4689 137.612 63.3882 141.859 63.3882C143.799 63.3882 146.142 62.763 146.508 62.5792C146.728 62.5056 146.838 62.2482 146.838 61.9908V56.4748C146.843 56.3183 146.791 56.1653 146.693 56.0437C146.595 55.9222 146.457 55.8402 146.303 55.8129V55.8165ZM233.054 47.7227C233.054 41.0667 230.382 40.1841 227.563 40.4783C225.366 40.6254 223.609 41.7286 223.609 41.7286V54.6729C223.609 54.6729 225.403 55.9232 228.075 55.9967C231.846 56.107 233.054 54.7464 233.054 47.7227ZM241.951 47.1343C241.951 59.7476 237.887 63.3514 230.785 63.3514C224.78 63.3514 221.559 60.2992 221.559 60.2992C221.559 60.2992 221.412 61.9908 221.229 62.2114C221.119 62.4321 220.936 62.5056 220.717 62.5056H215.298C214.932 62.5056 214.603 62.2114 214.603 61.8805L214.676 21.0251C214.676 20.6942 214.969 20.4 215.298 20.4H223.096C223.426 20.4 223.719 20.6942 223.719 21.0251V34.8887C223.719 34.8887 226.721 32.9398 231.114 32.9398L231.077 32.8662C235.471 32.8662 241.951 34.521 241.951 47.1343ZM210.027 33.8591H202.338C201.936 33.8591 201.716 34.1533 201.716 34.5578V54.5626C201.716 54.5626 199.703 55.9967 196.957 55.9967C194.211 55.9967 193.406 54.7464 193.406 51.9884V34.521C193.406 34.1901 193.113 33.8959 192.783 33.8959H184.949C184.619 33.8959 184.326 34.1901 184.326 34.521V53.3123C184.326 61.4024 188.829 63.425 195.016 63.425C200.105 63.425 204.242 60.5934 204.242 60.5934C204.242 60.5934 204.425 62.0276 204.535 62.2482C204.608 62.4321 204.865 62.5792 205.121 62.5792H210.027C210.429 62.5792 210.649 62.285 210.649 61.954L210.722 34.4842C210.722 34.1533 210.429 33.8591 210.027 33.8591ZM123.261 33.8223H115.463C115.133 33.8223 114.84 34.1533 114.84 34.5578V61.5495C114.84 62.285 115.316 62.5424 115.939 62.5424H122.968C123.7 62.5424 123.883 62.2114 123.883 61.5495V34.4475C123.883 34.1165 123.59 33.8223 123.261 33.8223ZM119.417 21.3929C116.598 21.3929 114.365 23.6361 114.365 26.4676C114.365 29.2992 116.598 31.5424 119.417 31.5424C122.162 31.5424 124.396 29.2992 124.396 26.4676C124.396 23.6361 122.162 21.3929 119.417 21.3929ZM179.787 20.4735H172.062C171.732 20.4735 171.44 20.7677 171.44 21.0987V36.139H159.322V21.0987C159.322 20.7677 159.029 20.4735 158.699 20.4735H150.901C150.572 20.4735 150.279 20.7677 150.279 21.0987V61.954C150.279 62.285 150.608 62.5792 150.901 62.5792H158.699C159.029 62.5792 159.322 62.285 159.322 61.954V44.4866H171.44L171.366 61.954C171.366 62.285 171.659 62.5792 171.989 62.5792H179.787C180.116 62.5792 180.409 62.285 180.409 61.954V21.0987C180.409 20.7677 180.116 20.4735 179.787 20.4735ZM110.704 38.5661V59.6741C110.704 59.8212 110.667 60.0786 110.484 60.1521C110.484 60.1521 105.908 63.425 98.366 63.425C89.2501 63.425 78.4501 60.5566 78.4501 41.6551C78.4501 22.7535 87.8955 18.8555 97.1212 18.8923C105.102 18.8923 108.324 20.6942 108.836 21.0251C108.983 21.209 109.056 21.3561 109.056 21.54L107.518 28.0857C107.518 28.4166 107.189 28.8211 106.786 28.7108C105.468 28.3063 103.491 27.4973 98.8419 27.4973C93.4602 27.4973 87.6758 29.0418 87.6758 41.2138C87.6758 53.3858 93.1673 54.82 97.1212 54.82C100.489 54.82 101.697 54.4155 101.697 54.4155V45.9576H96.3158C95.9131 45.9576 95.6202 45.6634 95.6202 45.3324V38.5661C95.6202 38.2351 95.9131 37.9409 96.3158 37.9409H110.008C110.411 37.9409 110.704 38.2351 110.704 38.5661Z" fill="white"/>
</svg>
