<svg width="206" height="87" viewBox="0 0 206 87" fill="none" xmlns="http://www.w3.org/2000/svg">
<path d="M22.1358 23.7012V40.1353H7.12606V23.7012H0V62.931H7.12606V47.0305H22.1358V62.931H29.2619V23.7012H22.1358Z" fill="white"/>
<path d="M52.068 50.2491C52.068 51.8213 51.4469 53.3291 50.3413 54.4408C49.2357 55.5525 47.7362 56.1771 46.1727 56.1771C44.6092 56.1771 43.1097 55.5525 42.0041 54.4408C40.8985 53.3291 40.2774 51.8213 40.2774 50.2491V33.4463H33.5179V50.2491C33.5179 53.6207 34.8499 56.8542 37.2208 59.2383C39.5918 61.6224 42.8075 62.9617 46.1605 62.9617C49.5135 62.9617 52.7292 61.6224 55.1001 59.2383C57.4711 56.8542 58.803 53.6207 58.803 50.2491V33.4463H52.068V50.2491Z" fill="white"/>
<path d="M102.151 35.1781C102.151 31.7339 104.417 30.6421 106.899 30.6421C108.9 30.6421 111.543 32.1728 113.271 34.03L117.698 28.7849C115.488 25.7796 111.005 23.7012 107.336 23.7012C100.004 23.7012 94.7003 28.0195 94.7003 35.1781C94.7003 48.4595 110.845 44.2465 110.845 51.6789C110.845 53.9714 108.631 55.9972 106.096 55.9972C102.099 55.9972 100.803 54.0311 98.9668 51.9527L94.0544 57.089C97.1967 60.9685 101.072 62.938 105.716 62.938C112.681 62.938 118.285 58.5671 118.285 51.735C118.285 36.9896 102.141 41.5712 102.141 35.1781" fill="white"/>
<path d="M202.028 56.6638C198.034 56.6638 196.899 54.9259 196.899 52.2647V40.4859H203.107V34.5175H196.899V26.6428L190.045 29.7358V53.7287C190.045 59.8656 194.256 62.9586 200.031 62.9586C200.936 62.9752 201.842 62.9023 202.733 62.741L204.405 56.5514C203.651 56.6041 202.785 56.6567 202.028 56.6567" fill="white"/>
<path d="M77.7982 33.6445C74.4499 33.6445 72.1141 34.6205 69.8552 36.8498V23.9371H63.0852V47.8703C63.0852 56.8299 69.527 62.9668 76.7647 62.9668C84.7951 62.9668 91.8583 56.721 91.8583 48.3091C91.8583 40.0025 85.3572 33.648 77.7982 33.648V33.6445ZM77.7563 56.1172C76.2371 56.1172 74.752 55.6642 73.4889 54.8155C72.2257 53.9668 71.2412 52.7605 70.6598 51.3491C70.0784 49.9378 69.9263 48.3848 70.2227 46.8865C70.5191 45.3883 71.2507 44.012 72.3249 42.9318C73.3991 41.8516 74.7678 41.116 76.2578 40.818C77.7478 40.52 79.2922 40.6729 80.6958 41.2575C82.0993 41.8421 83.299 42.8321 84.143 44.1023C84.987 45.3724 85.4375 46.8658 85.4375 48.3934C85.4375 50.4419 84.6283 52.4064 83.1878 53.8549C81.7472 55.3034 79.7935 56.1172 77.7563 56.1172Z" fill="white"/>
<path d="M151.307 47.9495C151.307 39.5235 144.258 33.2918 136.213 33.2918C128.976 33.2918 122.534 39.4287 122.534 48.3883V72.3356H129.304V59.4053C131.559 61.6311 133.899 62.6106 137.243 62.6106C144.802 62.6106 151.303 56.2596 151.303 47.9495H151.307ZM144.897 47.8652C144.897 49.3929 144.446 50.8862 143.602 52.1563C142.758 53.4265 141.558 54.4165 140.155 55.0011C138.751 55.5857 137.207 55.7386 135.717 55.4406C134.227 55.1426 132.858 54.407 131.784 53.3268C130.71 52.2466 129.978 50.8703 129.682 49.3721C129.385 47.8738 129.538 46.3208 130.119 44.9095C130.7 43.4981 131.685 42.2918 132.948 41.4431C134.211 40.5944 135.696 40.1414 137.215 40.1414C139.253 40.1414 141.206 40.9552 142.647 42.4037C144.087 43.8522 144.897 45.8168 144.897 47.8652Z" fill="white"/>
<path d="M173.11 33.1829V26.4141C173.999 25.9963 174.753 25.3329 175.282 24.5013C175.811 23.6696 176.094 22.7039 176.098 21.7166V21.5586C176.095 20.1789 175.548 18.8568 174.578 17.8812C173.608 16.9055 172.293 16.3558 170.921 16.3521H170.763C169.391 16.3558 168.076 16.9055 167.106 17.8812C166.136 18.8568 165.589 20.1789 165.586 21.5586V21.7166C165.59 22.7039 165.873 23.6696 166.402 24.5013C166.931 25.3329 167.685 25.9963 168.574 26.4141V33.1829C166.017 33.5762 163.608 34.642 161.591 36.2724L143.108 21.8114C143.239 21.3344 143.31 20.8424 143.317 20.3474C143.319 19.1857 142.977 18.0497 142.337 17.083C141.696 16.1164 140.785 15.3624 139.718 14.9166C138.651 14.4707 137.477 14.353 136.343 14.5783C135.21 14.8036 134.168 15.3617 133.351 16.1822C132.533 17.0026 131.975 18.0485 131.748 19.1876C131.522 20.3267 131.636 21.5078 132.077 22.5816C132.518 23.6554 133.265 24.5736 134.225 25.2202C135.185 25.8667 136.314 26.2126 137.469 26.214C138.484 26.2102 139.48 25.9377 140.356 25.424L158.529 39.6498C156.893 42.133 156.039 45.0549 156.079 48.0338C156.12 51.0127 157.053 53.91 158.756 56.3473L153.226 61.9084C152.782 61.7663 152.32 61.6905 151.854 61.6837C150.904 61.6837 149.976 61.9668 149.187 62.4973C148.397 63.0277 147.782 63.7816 147.418 64.6637C147.055 65.5458 146.96 66.5164 147.145 67.4528C147.331 68.3893 147.788 69.2494 148.459 69.9245C149.131 70.5996 149.986 71.0594 150.917 71.2457C151.848 71.4319 152.814 71.3363 153.691 70.971C154.568 70.6056 155.318 69.9869 155.845 69.193C156.373 68.3991 156.655 67.4658 156.655 66.5111C156.648 66.0426 156.573 65.5776 156.431 65.1313L161.902 59.6299C163.688 61.0016 165.762 61.9448 167.966 62.3876C170.17 62.8305 172.445 62.7611 174.618 62.1849C176.791 61.6086 178.804 60.5408 180.504 59.0628C182.204 57.5848 183.546 55.7358 184.427 53.6569C185.308 51.578 185.705 49.3241 185.588 47.0674C185.47 44.8107 184.842 42.6108 183.75 40.6357C182.658 38.6605 181.132 36.9623 179.288 35.6706C177.444 34.379 175.331 33.5281 173.11 33.1829ZM170.844 55.4485C169.347 55.4485 167.883 55.0021 166.638 54.1657C165.394 53.3294 164.423 52.1406 163.85 50.7498C163.278 49.359 163.128 47.8286 163.42 46.3521C163.712 44.8757 164.433 43.5194 165.491 42.455C166.55 41.3905 167.899 40.6656 169.367 40.3719C170.835 40.0782 172.357 40.2289 173.74 40.805C175.124 41.3811 176.306 42.3567 177.138 43.6084C177.969 44.8601 178.413 46.3317 178.413 47.8371C178.413 49.8557 177.616 51.7917 176.196 53.2192C174.777 54.6466 172.851 55.4485 170.844 55.4485Z" fill="white"/>
</svg>
