<svg width="218" height="87" viewBox="0 0 218 87" fill="none" xmlns="http://www.w3.org/2000/svg">
<path d="M68.1454 58.6468L70.7834 52.5005C73.6718 54.6328 77.4392 55.7613 81.2075 55.7613C83.9707 55.7613 85.7287 54.6956 85.7287 53.0652C85.6657 48.5493 69.0875 52.0615 68.9614 40.708C68.8984 34.9379 74.0483 30.4848 81.3336 30.4848C85.6657 30.4848 89.9996 31.5514 93.0762 33.9979L90.6112 40.2753C87.7804 38.4608 84.2841 37.1958 80.9562 37.1958C78.6956 37.1958 77.1879 38.2615 77.1879 39.6423C77.251 44.0954 93.9562 41.6489 94.1444 52.5005C94.1444 58.3963 89.1197 62.536 81.9604 62.536C76.6863 62.536 71.8507 61.2818 68.1445 58.6468H68.1454ZM173.186 50.2749C172.52 51.4543 171.552 52.4359 170.38 53.119C169.208 53.8021 167.874 54.1622 166.517 54.1623C162.285 54.1623 158.856 50.7363 158.856 46.5104C158.856 42.2845 162.285 38.8585 166.517 38.8585C167.874 38.8587 169.208 39.2187 170.38 39.9019C171.552 40.585 172.52 41.5666 173.186 42.746L180.52 38.688C177.773 33.7941 172.533 30.4848 166.517 30.4848C157.655 30.4848 150.472 37.6591 150.472 46.5104C150.472 55.3609 157.655 62.536 166.517 62.536C172.533 62.536 177.773 59.2268 180.52 54.3329L173.186 50.2749ZM98.9034 61.9085H108.072V17.1445H98.9043L98.9034 61.9085ZM185.15 17.1445V61.9085H194.319V48.4972L205.183 61.9085H216.902L203.087 45.9762L215.897 31.1097H204.681L194.319 43.4696V17.1445H185.15ZM136.319 31.1115V34.7502C134.812 32.2409 131.107 30.4848 127.213 30.4848C119.175 30.4848 112.833 37.5729 112.833 46.479C112.833 55.3851 119.175 62.536 127.213 62.536C131.107 62.536 134.812 60.7799 136.319 58.2706V61.9085H145.488V31.1115H136.319ZM136.319 50.3368C135 52.5319 132.237 54.1614 129.161 54.1614C124.928 54.1614 121.499 50.7363 121.499 46.5104C121.499 42.2845 124.928 38.8585 129.161 38.8585C132.237 38.8585 135 40.5518 136.319 42.8088V50.3368Z" fill="white"/>
<path d="M19.726 16.1553C16.7547 16.1553 14.3464 18.5614 14.3464 21.5286C14.3457 22.2335 14.4843 22.9316 14.7542 23.5832C15.0242 24.2347 15.4203 24.8269 15.9198 25.3258C16.4193 25.8248 17.0126 26.2208 17.6656 26.4912C18.3187 26.7616 19.0188 26.9011 19.726 26.9019H25.1064V21.5286C25.1076 20.1048 24.5414 18.7389 23.5324 17.7312C22.5234 16.7236 21.1542 16.1567 19.726 16.1553ZM19.726 30.484H5.37956C2.40833 30.484 0 32.8901 0 35.8582C0 38.8254 2.40833 41.2315 5.37956 41.2315H19.7269C22.6972 41.2315 25.1064 38.8254 25.1064 35.8582C25.1064 32.8901 22.6972 30.484 19.726 30.484Z" fill="white"/>
<path d="M53.7998 35.8582C53.7998 32.8901 51.3906 30.484 48.4193 30.484C45.4481 30.484 43.0398 32.8901 43.0398 35.8582V41.2315H48.4193C49.8476 41.2301 51.2168 40.6632 52.2258 39.6555C53.2348 38.6479 53.801 37.282 53.7998 35.8582ZM39.4534 35.8582V21.5286C39.4546 20.1048 38.8884 18.7389 37.8794 17.7312C36.8704 16.7236 35.5012 16.1567 34.0729 16.1553C31.1017 16.1553 28.6934 18.5614 28.6934 21.5286V35.8573C28.6934 38.8263 31.1017 41.2324 34.0729 41.2324C35.5012 41.231 36.8704 40.6641 37.8794 39.6564C38.8884 38.6488 39.4546 37.2829 39.4534 35.8591" fill="white"/>
<path d="M34.0729 69.8907C35.5012 69.8893 36.8704 69.3224 37.8794 68.3147C38.8884 67.3071 39.4546 65.9411 39.4534 64.5174C39.4546 63.0937 38.8884 61.7278 37.8794 60.7201C36.8704 59.7124 35.5012 59.1455 34.0729 59.1441H28.6934V64.5174C28.6934 67.4846 31.1017 69.8907 34.0729 69.8907ZM34.0729 55.5619H48.4202C51.3906 55.5619 53.7998 53.1558 53.7998 50.1877C53.801 48.764 53.2348 47.3981 52.2258 46.3904C51.2168 45.3828 49.8476 44.8159 48.4193 44.8145H34.0729C31.1017 44.8145 28.6934 47.2205 28.6934 50.1877C28.6927 50.8927 28.8312 51.5908 29.1012 52.2424C29.3712 52.8939 29.7672 53.486 30.2668 53.985C30.7663 54.484 31.3595 54.8799 32.0126 55.1504C32.6657 55.4208 33.3658 55.5603 34.0729 55.561" fill="white"/>
<path d="M2.7144e-06 50.1877C-0.000707289 50.8927 0.137876 51.5908 0.40784 52.2424C0.677804 52.8939 1.07386 53.486 1.5734 53.985C2.07294 54.484 2.66618 54.8799 3.31924 55.1504C3.9723 55.4208 4.6724 55.5603 5.37956 55.561C6.80783 55.5596 8.17704 54.9927 9.18605 53.9851C10.1951 52.9774 10.7612 51.6115 10.76 50.1877V44.8145H5.37956C2.40833 44.8145 2.7144e-06 47.2205 2.7144e-06 50.1877ZM14.3464 50.1877V64.5165C14.3464 67.4846 16.7547 69.8907 19.726 69.8907C21.1542 69.8893 22.5234 69.3224 23.5324 68.3147C24.5415 67.3071 25.1076 65.9411 25.1064 64.5174V50.1877C25.1071 49.4827 24.9685 48.7845 24.6985 48.1329C24.4285 47.4813 24.0323 46.8891 23.5327 46.3902C23.0331 45.8912 22.4397 45.4952 21.7866 45.2249C21.1334 44.9545 20.4332 44.815 19.726 44.8145C16.7547 44.8145 14.3464 47.2205 14.3464 50.1877Z" fill="white"/>
</svg>
