<svg width="229" height="87" viewBox="0 0 229 87" fill="none" xmlns="http://www.w3.org/2000/svg">
<path fill-rule="evenodd" clip-rule="evenodd" d="M221.703 58.0307C221.84 59.6032 223.094 61.6047 225.268 61.6047H226.538C227.032 61.6047 227.436 61.1997 227.436 60.7051V32.6648H227.43C227.405 32.1924 227.016 31.814 226.538 31.814H222.6C222.123 31.814 221.734 32.1924 221.709 32.6648H221.703V34.9432C219.289 31.9595 215.484 30.7211 211.669 30.7211C202.995 30.7211 195.965 37.7783 195.965 46.4842C195.965 55.1907 202.995 62.248 211.669 62.248C215.484 62.248 219.644 60.7628 221.703 58.0272V58.0307ZM211.683 56.7311C206.168 56.7311 201.696 52.1438 201.696 46.4842C201.696 40.8257 206.168 36.2382 211.683 36.2382C217.201 36.2382 221.672 40.8257 221.672 46.4842C221.672 52.1438 217.201 56.7311 211.683 56.7311Z" fill="white"/>
<path fill-rule="evenodd" clip-rule="evenodd" d="M190.983 44.4854C190.983 36.3064 185.843 30.7887 177.645 30.7887C173.731 30.7887 170.524 33.06 169.391 35.011C169.146 33.4854 168.339 31.8818 165.836 31.8818H164.561C164.067 31.8818 163.665 32.2872 163.665 32.7819V58.1009C163.665 58.1017 163.665 58.1035 163.665 58.1048V60.8245H163.67C163.695 61.2962 164.085 61.6749 164.561 61.6749H168.5C168.561 61.6749 168.62 61.6677 168.677 61.6566C168.703 61.6515 168.727 61.6412 168.753 61.634C168.782 61.625 168.812 61.618 168.84 61.6065C168.875 61.5919 168.907 61.5724 168.94 61.5541C168.956 61.5442 168.973 61.5374 168.988 61.5271C169.027 61.5017 169.063 61.471 169.098 61.4398C169.104 61.4341 169.111 61.4302 169.116 61.4248C169.155 61.3868 169.191 61.3449 169.223 61.3013C169.321 61.1655 169.382 61.0011 169.392 60.8245H169.397V44.2604C169.397 39.8677 172.945 36.3064 177.322 36.3064C181.698 36.3064 185.247 39.8677 185.247 44.2604L185.25 58.1058L185.251 58.1009C185.251 58.1132 185.253 58.1257 185.253 58.1389V60.8245H185.258C185.284 61.2962 185.674 61.6749 186.15 61.6749H190.089C190.15 61.6749 190.208 61.6677 190.265 61.6566C190.289 61.6523 190.31 61.6428 190.333 61.6365C190.365 61.627 190.399 61.619 190.43 61.6065C190.462 61.5931 190.491 61.5744 190.522 61.5572C190.54 61.5467 190.56 61.5391 190.578 61.5271C190.614 61.5031 190.647 61.4741 190.68 61.4456C190.688 61.4378 190.698 61.432 190.705 61.4242C190.743 61.388 190.776 61.349 190.806 61.3081C190.809 61.305 190.811 61.3025 190.813 61.2995C190.91 61.1649 190.97 61.0023 190.98 60.8268C190.98 60.8256 190.981 60.8245 190.981 60.8245H190.986L190.983 44.4854Z" fill="white"/>
<path fill-rule="evenodd" clip-rule="evenodd" d="M149.96 58.0306C150.098 59.6031 151.352 61.6047 153.524 61.6047H154.796C155.288 61.6047 155.692 61.1996 155.692 60.705V32.6648H155.687C155.661 32.1924 155.271 31.814 154.796 31.814H150.856C150.38 31.814 149.991 32.1924 149.964 32.6648H149.96V34.9432C147.546 31.9595 143.741 30.7211 139.925 30.7211C131.252 30.7211 124.221 37.7783 124.221 46.4843C124.221 55.1907 131.252 62.2481 139.925 62.2481C143.741 62.2481 147.9 60.7629 149.959 58.0271L149.96 58.0306ZM139.941 56.7311C134.425 56.7311 129.953 52.1439 129.953 46.4843C129.953 40.8257 134.425 36.2382 139.941 36.2382C145.457 36.2382 149.928 40.8257 149.928 46.4843C149.928 52.1439 145.457 56.7311 139.941 56.7311Z" fill="white"/>
<path fill-rule="evenodd" clip-rule="evenodd" d="M100.927 54.0147C103.556 55.8433 106.427 56.7314 109.185 56.7314C111.813 56.7314 114.529 55.364 114.529 52.984C114.529 49.8066 108.61 49.3121 104.891 48.0434C101.17 46.7746 97.9664 44.1518 97.9664 39.9043C97.9664 33.405 103.736 30.7207 109.121 30.7207C112.533 30.7207 116.054 31.85 118.336 33.4677C119.122 34.0655 118.643 34.7518 118.643 34.7518L116.465 37.875C116.22 38.2268 115.791 38.5307 115.177 38.15C114.562 37.7695 112.407 36.2379 109.121 36.2379C105.835 36.2379 103.856 37.7608 103.856 39.6485C103.856 41.9121 106.429 42.624 109.441 43.3955C114.692 44.816 120.419 46.5235 120.419 52.984C120.419 58.7104 115.083 62.2493 109.185 62.2493C104.716 62.2493 100.91 60.9704 97.7187 58.6198C97.0538 57.9519 97.5181 57.3317 97.5181 57.3317L99.6861 54.2243C100.127 53.6434 100.683 53.846 100.927 54.0147Z" fill="white"/>
<path fill-rule="evenodd" clip-rule="evenodd" d="M85.7829 58.0306C85.9206 59.6031 87.1748 61.6047 89.3473 61.6047H90.6187C91.1115 61.6047 91.5153 61.1996 91.5153 60.705V32.6648H91.5098C91.484 32.1924 91.0949 31.814 90.6187 31.814H86.6796C86.2032 31.814 85.8141 32.1924 85.7876 32.6648H85.7829V34.9432C83.3694 31.9595 79.5643 30.7211 75.7485 30.7211C67.0752 30.7211 60.0439 37.7783 60.0439 46.4843C60.0439 55.1907 67.0752 62.2481 75.7485 62.2481C79.5643 62.2481 83.7227 60.7629 85.7823 58.0271L85.7829 58.0306ZM75.7639 56.7311C70.2476 56.7311 65.7757 52.1439 65.7757 46.4843C65.7757 40.8257 70.2476 36.2382 75.7639 36.2382C81.2799 36.2382 85.7514 40.8257 85.7514 46.4843C85.7514 52.1439 81.2799 56.7311 75.7639 56.7311Z" fill="white"/>
<path fill-rule="evenodd" clip-rule="evenodd" d="M38.0265 47.5551C32.1898 47.5551 27.4579 52.3007 27.4579 58.1551C27.4579 64.0092 32.1898 68.7547 38.0265 68.7547C43.8634 68.7547 48.5951 64.0092 48.5951 58.1551C48.5951 52.3007 43.8634 47.5551 38.0265 47.5551ZM10.5686 47.5562C4.73175 47.5562 0 52.3007 0 58.1551C0 64.0092 4.73175 68.7547 10.5686 68.7547C16.4056 68.7547 21.1376 64.0092 21.1376 58.1551C21.1376 52.3007 16.4056 47.5562 10.5686 47.5562ZM34.8659 34.3054C34.8659 40.1598 30.1344 44.9059 24.2975 44.9059C18.4605 44.9059 13.729 40.1598 13.729 34.3054C13.729 28.4522 18.4605 23.7061 24.2975 23.7061C30.1344 23.7061 34.8659 28.4522 34.8659 34.3054Z" fill="white"/>
</svg>
