<svg width="253" height="87" viewBox="0 0 253 87" fill="none" xmlns="http://www.w3.org/2000/svg">
<g clip-path="url(#clip0_450_1841)">
<path d="M37.9516 6.3584C17.0637 6.3584 0.129883 23.1992 0.129883 43.973C0.129883 64.7477 17.0637 81.5872 37.9516 81.5872C58.8418 81.5872 75.7738 64.7477 75.7738 43.973C75.7738 23.2006 58.8418 6.3602 37.9512 6.3602L37.9516 6.3584ZM55.2964 60.6095C54.619 61.7144 53.1647 62.0648 52.0537 61.3865C43.1735 55.992 31.9945 54.7702 18.8292 57.7617C17.5605 58.0492 16.2959 57.2586 16.0069 55.9965C15.7165 54.7343 16.5082 53.4766 17.78 53.1891C32.1873 49.9156 44.5456 51.3251 54.5151 57.3844C55.6261 58.0626 55.9784 59.5045 55.2964 60.6095ZM59.9257 50.3674C59.0721 51.7473 57.2566 52.183 55.87 51.334C45.7036 45.1193 30.2064 43.3195 18.1815 46.9497C16.622 47.4182 14.9749 46.5441 14.5015 44.9958C14.0318 43.4448 14.9112 41.8098 16.468 41.3382C30.2037 37.1932 47.2798 39.201 58.9547 46.3361C60.3413 47.185 60.7793 48.9907 59.9257 50.3679V50.3674ZM60.3232 39.7023C48.1334 32.5016 28.0219 31.8395 16.3835 35.3525C14.5146 35.9162 12.5383 34.8669 11.9719 33.0083C11.4055 31.1487 12.4597 29.1844 14.3299 28.6194C27.6899 24.5858 49.8993 25.3651 63.9336 33.651C65.6182 34.6432 66.1692 36.8024 65.1711 38.472C64.1775 40.1438 62.0006 40.6949 60.325 39.7023H60.3232ZM103.03 41.0821C96.4996 39.5334 95.3389 38.4464 95.3389 36.1623C95.3389 34.0045 97.3803 32.5523 100.42 32.5523C103.365 32.5523 106.282 33.6551 109.344 35.9252C109.435 35.9939 109.552 36.0213 109.665 36.0033C109.782 35.9863 109.882 35.9238 109.949 35.83L113.138 31.3598C113.269 31.1756 113.233 30.9218 113.057 30.7813C109.412 27.8738 105.311 26.4602 100.515 26.4602C93.4646 26.4602 88.5372 30.6685 88.5372 36.6897C88.5372 43.1465 92.7871 45.4328 100.131 47.1976C106.377 48.6291 107.434 49.8284 107.434 51.9719C107.434 54.348 105.302 55.8258 101.87 55.8258C98.0578 55.8258 94.946 54.5456 91.4683 51.5541C91.3825 51.4778 91.2651 51.4463 91.1567 51.4508C91.0393 51.4598 90.9354 51.5137 90.8631 51.5991L87.2861 55.8303C87.1371 56.0099 87.1552 56.2704 87.3268 56.4232C91.3735 60.0165 96.3506 61.9121 101.725 61.9121C109.322 61.9121 114.231 57.7842 114.231 51.3924C114.245 45.9992 110.997 43.0122 103.044 41.088L103.03 41.0821ZM131.42 34.6769C128.128 34.6769 125.427 35.967 123.196 38.6103V35.635C123.196 35.4001 123.006 35.2087 122.772 35.2087H116.923C116.688 35.2087 116.498 35.4001 116.498 35.635V68.6946C116.498 68.9281 116.688 69.1213 116.923 69.1213H122.772C123.006 69.1213 123.196 68.9281 123.196 68.6946V58.2603C125.427 60.7442 128.128 61.9615 131.42 61.9615C137.54 61.9615 143.737 57.2766 143.737 48.3205C143.746 39.3627 137.549 34.6765 131.425 34.6765L131.42 34.6769ZM136.935 48.3205C136.935 52.8792 134.112 56.0638 130.066 56.0638C126.069 56.0638 123.052 52.7355 123.052 48.3205C123.052 43.9052 126.069 40.5777 130.066 40.5777C134.045 40.5773 136.935 43.8329 136.935 48.3201V48.3205ZM159.612 34.6769C151.731 34.6769 145.557 40.712 145.557 48.418C145.557 56.0414 151.69 62.0109 159.517 62.0109C167.425 62.0109 173.617 55.9964 173.617 48.3205C173.617 40.6707 167.466 34.6778 159.612 34.6778V34.6769ZM159.612 56.1087C155.421 56.1087 152.259 52.7579 152.259 48.3183C152.259 43.8585 155.312 40.6222 159.517 40.6222C163.735 40.6222 166.915 43.9717 166.915 48.4158C166.915 52.8747 163.844 56.1087 159.612 56.1087ZM190.445 35.2087H184.01V28.6661C184.01 28.4316 183.82 28.2403 183.585 28.2403H177.736C177.501 28.2403 177.307 28.4316 177.307 28.6661V35.2087H174.498C174.263 35.2087 174.073 35.4001 174.073 35.635V40.633C174.073 40.8674 174.263 41.0592 174.498 41.0592H177.307V53.9931C177.307 59.217 179.922 61.8671 185.084 61.8671C187.18 61.8671 188.919 61.4359 190.558 60.5106C190.694 60.4388 190.775 60.295 190.775 60.1423V55.3811C190.775 55.2374 190.698 55.0981 190.572 55.0217C190.445 54.9409 190.287 54.9364 190.156 55.0038C189.032 55.5652 187.943 55.8258 186.724 55.8258C184.85 55.8258 184.01 54.9768 184.01 53.0813V41.0615H190.445C190.68 41.0615 190.87 40.8701 190.87 40.6352V35.6377C190.879 35.4028 190.689 35.2114 190.45 35.2114L190.445 35.2087ZM212.865 35.2344V34.4308C212.865 32.0668 213.777 31.0126 215.819 31.0126C217.038 31.0126 218.018 31.2533 219.116 31.6172C219.251 31.6594 219.391 31.6383 219.499 31.5579C219.612 31.4775 219.676 31.3486 219.676 31.212V26.3115C219.676 26.1242 219.558 25.9585 219.373 25.9032C218.217 25.5605 216.735 25.2088 214.513 25.2088C209.116 25.2088 206.257 28.2335 206.257 33.9529V35.1836H203.448C203.213 35.1836 203.019 35.3749 203.019 35.6094V40.633C203.019 40.8674 203.213 41.0592 203.448 41.0592H206.257V61.0047C206.257 61.2428 206.452 61.4314 206.686 61.4314H212.531C212.77 61.4314 212.96 61.2428 212.96 61.0047V41.0606H218.42L226.784 61.0047C225.836 63.0979 224.901 63.5156 223.627 63.5156C222.598 63.5156 221.509 63.2102 220.403 62.6038C220.299 62.5499 220.172 62.5409 220.064 62.5723C219.951 62.6128 219.856 62.6936 219.811 62.8014L217.828 67.1269C217.734 67.3336 217.815 67.5716 218.014 67.6794C220.082 68.7934 221.947 69.2695 224.255 69.2695C228.573 69.2695 230.962 67.2662 233.062 61.8851L243.206 35.8165C243.26 35.6853 243.242 35.5371 243.161 35.4208C243.084 35.3053 242.953 35.2357 242.813 35.2357H236.725C236.54 35.2357 236.377 35.3511 236.319 35.5214L230.081 53.234L223.253 35.5097C223.189 35.3448 223.031 35.2357 222.855 35.2357H212.865V35.2344ZM199.867 35.2087H194.018C193.783 35.2087 193.589 35.4001 193.589 35.635V61.0047C193.589 61.2428 193.783 61.4314 194.018 61.4314H199.867C200.101 61.4314 200.296 61.2428 200.296 61.0047V35.6368C200.296 35.4019 200.106 35.2105 199.867 35.2105V35.2087ZM196.976 23.6565C194.659 23.6565 192.78 25.5214 192.78 27.8253C192.78 30.1304 194.659 31.9976 196.976 31.9976C199.293 31.9976 201.167 30.1304 201.167 27.8253C201.167 25.5219 199.289 23.6565 196.976 23.6565ZM248.201 43.3662C245.889 43.3662 244.087 41.5178 244.087 39.2733C244.087 37.0288 245.911 35.1593 248.224 35.1593C250.536 35.1593 252.338 37.0072 252.338 39.25C252.338 41.4945 250.514 43.3662 248.201 43.3662ZM248.224 35.5663C246.115 35.5663 244.52 37.2327 244.52 39.2733C244.52 41.313 246.106 42.957 248.201 42.957C250.31 42.957 251.905 41.2919 251.905 39.25C251.905 37.2103 250.319 35.5663 248.224 35.5663ZM249.136 39.6708L250.301 41.2914H249.317L248.269 39.8047H247.37V41.2914H246.548V36.9956H248.472C249.479 36.9956 250.139 37.5063 250.139 38.366C250.143 39.0703 249.732 39.5006 249.141 39.6708H249.136ZM248.441 37.7326H247.37V39.0914H248.441C248.973 39.0914 249.294 38.8313 249.294 38.4113C249.294 37.9694 248.973 37.7326 248.441 37.7326Z" fill="white"/>
</g>
<defs>
<clipPath id="clip0_450_1841">
<rect width="252.14" height="85.9757" fill="white" transform="translate(0 0.84375)"/>
</clipPath>
</defs>
</svg>
