<svg width="282" height="87" viewBox="0 0 282 87" fill="none" xmlns="http://www.w3.org/2000/svg">
<path d="M274.935 51.8318C274.775 52.6252 274.495 53.2995 274.114 53.8943C273.735 54.4885 273.234 54.9653 272.595 55.3413C271.974 55.6988 271.195 55.8964 270.275 55.8964C269.375 55.8964 268.594 55.7184 267.975 55.3413C267.356 54.9825 266.829 54.4874 266.434 53.8943C266.054 53.3001 265.774 52.6252 265.594 51.8318C265.418 51.0443 265.331 50.2397 265.334 49.433C265.334 48.6004 265.415 47.7673 265.574 46.9951C265.734 46.2016 266.014 45.5078 266.395 44.913C266.774 44.2975 267.275 43.8224 267.914 43.4263C268.535 43.0492 269.314 42.8511 270.234 42.8511C271.134 42.8511 271.895 43.0492 272.515 43.4263C273.136 43.8072 273.662 44.3221 274.055 44.9326C274.455 45.547 274.735 46.2604 274.915 47.0343C275.094 47.8271 275.175 48.62 275.175 49.433C275.175 50.246 275.094 51.0389 274.935 51.8318ZM280.256 45.4284C279.875 44.1 279.316 42.9501 278.555 41.939C277.775 40.9481 276.815 40.1345 275.655 39.5402C274.494 38.9454 273.095 38.6282 271.475 38.6282C270.194 38.6282 269.034 38.8861 267.974 39.3819C266.913 39.8776 266.033 40.6901 265.353 41.7807H265.274V39.1832H259.913V66.6822H265.554V57.0261H265.633C266.298 57.9962 267.209 58.7758 268.274 59.2867C269.354 59.802 270.514 60.06 271.794 60.06C273.295 60.06 274.615 59.7628 275.755 59.1876C276.855 58.6289 277.818 57.8368 278.575 56.8677C279.336 55.8964 279.895 54.7857 280.256 53.5172C280.636 52.2481 280.816 50.9404 280.816 49.5718C280.816 48.1248 280.636 46.7371 280.256 45.4082V45.4284ZM252.433 51.8318C252.273 52.6252 251.993 53.2995 251.612 53.8943C251.232 54.4891 250.732 54.9653 250.092 55.3413C249.472 55.6988 248.692 55.8964 247.772 55.8964C246.871 55.8964 246.112 55.7184 245.471 55.3413C244.853 54.9822 244.326 54.4871 243.931 53.8943C243.552 53.3001 243.272 52.6252 243.092 51.8318C242.915 51.0444 242.828 50.2397 242.832 49.433C242.832 48.6004 242.911 47.7673 243.071 46.9951C243.232 46.2016 243.511 45.5078 243.891 44.913C244.272 44.2975 244.771 43.8224 245.412 43.4263C246.031 43.0492 246.812 42.8511 247.731 42.8511C248.632 42.8511 249.391 43.0492 250.012 43.4263C250.633 43.8071 251.16 44.322 251.552 44.9326C251.952 45.547 252.232 46.2604 252.413 47.0343C252.592 47.8271 252.672 48.62 252.672 49.433C252.672 50.246 252.592 51.0389 252.433 51.8318ZM256.052 41.939C255.292 40.9481 254.312 40.1345 253.152 39.5402C251.992 38.9454 250.592 38.6282 248.971 38.6282C247.691 38.6282 246.532 38.8861 245.471 39.3819C244.411 39.8776 243.531 40.6901 242.851 41.7807H242.77V39.1832H237.41V66.6822H243.05V57.0261H243.131C243.796 57.9962 244.707 58.7758 245.772 59.2867C246.851 59.802 248.011 60.06 249.291 60.06C250.811 60.06 252.111 59.7628 253.253 59.1876C254.353 58.6286 255.315 57.8366 256.072 56.8677C256.833 55.8964 257.393 54.7857 257.773 53.5172C258.142 52.2339 258.331 50.9062 258.333 49.5718C258.333 48.1248 258.153 46.7371 257.773 45.4082C257.393 44.0804 256.833 42.93 256.052 41.9194V41.939ZM218.927 48.6799L222.628 38.3501H222.708L226.289 48.6799H218.927ZM219.528 31.4111L208.787 59.544H215.067L217.288 53.2794H227.909L230.049 59.544H236.53L225.909 31.4111H219.508H219.528ZM208.326 50.6226C207.946 49.9881 207.466 49.433 206.846 48.9971C206.246 48.5613 205.546 48.2233 204.765 47.9463C203.975 47.6889 203.174 47.4642 202.365 47.2726C201.565 47.0936 200.785 46.9151 200.025 46.7567C199.264 46.5984 198.564 46.4193 197.985 46.2212C197.385 46.0231 196.905 45.7658 196.544 45.4479C196.164 45.1307 195.984 44.7345 195.984 44.2192C195.984 43.8029 196.084 43.4655 196.304 43.2075C196.524 42.9501 196.784 42.7716 197.084 42.6329C197.384 42.4941 197.724 42.4146 198.105 42.3755C198.45 42.3376 198.797 42.3178 199.145 42.3161C200.145 42.3161 201.025 42.5142 201.766 42.8908C202.506 43.2674 202.926 44.0009 202.986 45.0714H208.346C208.246 43.8023 207.906 42.7716 207.366 41.9385C206.826 41.1053 206.146 40.4517 205.326 39.956C204.506 39.4602 203.566 39.1038 202.525 38.8856C201.486 38.6673 200.405 38.5683 199.285 38.5683C198.166 38.5683 197.085 38.6679 196.025 38.8654C194.965 39.0635 194.005 39.4009 193.165 39.8967C192.306 40.3924 191.625 41.0471 191.125 41.8791C190.605 42.7117 190.345 43.8029 190.345 45.1105C190.345 46.003 190.524 46.7562 190.905 47.3705C191.265 47.986 191.765 48.5008 192.365 48.9171C192.985 49.3138 193.665 49.6513 194.446 49.9086C195.226 50.166 196.026 50.3848 196.846 50.5628C198.866 50.9791 200.427 51.3954 201.566 51.8117C202.686 52.228 203.247 52.8625 203.247 53.6951C203.247 54.1909 203.127 54.6072 202.887 54.944C202.652 55.2732 202.344 55.5445 201.986 55.7369C201.626 55.935 201.226 56.0743 200.786 56.1728C200.373 56.266 199.95 56.3125 199.526 56.3115C198.966 56.3115 198.426 56.2528 197.926 56.1135C197.406 55.9747 196.946 55.7755 196.546 55.4985C196.146 55.221 195.826 54.864 195.566 54.4281C195.306 53.9922 195.186 53.4763 195.186 52.8815H189.825C189.885 54.2491 190.186 55.3793 190.766 56.2914C191.326 57.204 192.066 57.9174 192.946 58.4725C193.826 59.0276 194.846 59.4237 195.986 59.6616C197.126 59.8999 198.286 60.0191 199.486 60.0191C200.647 60.0191 201.806 59.8999 202.927 59.6811C204.047 59.4635 205.047 59.0668 205.927 58.5117C206.807 57.9566 207.507 57.223 208.048 56.3306C208.587 55.4191 208.867 54.3089 208.867 52.9604C208.867 52.0092 208.688 51.2163 208.307 50.5812L208.326 50.6226ZM184.983 33.0769H179.343V39.1832H175.922V42.93H179.343V54.9451C179.343 55.9764 179.522 56.7894 179.863 57.4234C180.203 58.0584 180.683 58.5335 181.283 58.8911C181.883 59.2279 182.564 59.4657 183.343 59.5849C184.164 59.706 184.994 59.7655 185.824 59.7628C186.384 59.7628 186.944 59.7432 187.544 59.7237C188.074 59.7059 188.601 59.6528 189.124 59.5648V55.2227C188.848 55.2844 188.567 55.3241 188.284 55.3413C187.978 55.365 187.671 55.3783 187.364 55.381C186.404 55.381 185.784 55.2227 185.464 54.9048C185.144 54.5881 184.984 53.9531 184.984 53.022V42.93H189.124V39.1832H184.984V33.0769H184.983ZM168.801 51.6735C168.801 51.9902 168.761 52.407 168.701 52.9425C168.634 53.4902 168.449 54.0174 168.161 54.4891C167.861 55.005 167.421 55.4409 166.801 55.818C166.201 56.194 165.321 56.3731 164.221 56.3731C163.781 56.3731 163.34 56.3328 162.901 56.2539C162.481 56.1739 162.101 56.0351 161.781 55.8376C161.46 55.639 161.221 55.3816 161.02 55.0246C160.841 54.6877 160.74 54.2714 160.74 53.7555C160.74 53.22 160.841 52.8037 161.02 52.4473C161.2 52.1093 161.46 51.8318 161.761 51.5946C162.061 51.3763 162.421 51.1984 162.841 51.0596C163.261 50.9209 163.661 50.8213 164.101 50.7418C164.552 50.6648 165.006 50.5988 165.461 50.5437C165.921 50.4844 166.341 50.4245 166.761 50.3457C167.181 50.2668 167.561 50.1672 167.921 50.0485C168.282 49.9299 168.581 49.771 168.822 49.5528V51.6348L168.801 51.6735ZM174.441 55.024V44.4167C174.441 43.1879 174.161 42.1964 173.602 41.4433C173.042 40.6895 172.321 40.1149 171.461 39.6986C170.581 39.2823 169.621 39.0047 168.561 38.8464C167.52 38.7054 166.471 38.6325 165.421 38.6282C164.28 38.6282 163.14 38.7474 162.02 38.9656C160.901 39.1838 159.88 39.5598 158.98 40.0959C158.094 40.6186 157.335 41.3297 156.76 42.1779C156.18 43.0503 155.84 44.1403 155.76 45.4491H161.401C161.501 44.3395 161.88 43.5662 162.52 43.09C163.161 42.6138 164.021 42.3766 165.141 42.3766C165.641 42.3766 166.121 42.4157 166.561 42.4756C166.971 42.529 167.366 42.6639 167.722 42.8723C168.062 43.0704 168.322 43.348 168.522 43.7049C168.722 44.0619 168.822 44.537 168.822 45.1519C168.841 45.7266 168.682 46.1636 168.301 46.4803C167.921 46.7774 167.421 47.0158 166.782 47.1741C166.142 47.3325 165.422 47.4517 164.601 47.5311C163.781 47.6106 162.941 47.7096 162.101 47.8484C161.261 47.9872 160.421 48.1651 159.581 48.3833C158.741 48.6015 158 48.9384 157.36 49.395C156.7 49.8505 156.18 50.4453 155.76 51.1788C155.34 51.9325 155.14 52.8843 155.14 54.0342C155.14 55.085 155.319 55.9971 155.68 56.7502C156.017 57.4845 156.525 58.1299 157.16 58.6342C157.821 59.1433 158.575 59.5204 159.38 59.7444C160.22 59.9822 161.14 60.1008 162.12 60.1008C163.401 60.1008 164.641 59.9229 165.861 59.5457C167.067 59.1807 168.162 58.5193 169.041 57.6231C169.061 57.96 169.121 58.2963 169.181 58.6342C169.241 58.9509 169.341 59.2883 169.442 59.6056H175.162C174.902 59.1893 174.702 58.5542 174.602 57.7216C174.496 56.8466 174.443 55.9662 174.442 55.085V55.024H174.441ZM151.199 40.9475C150.639 40.2341 149.879 39.6589 148.919 39.2621C147.959 38.8458 146.719 38.6472 145.199 38.6472C144.138 38.6472 143.058 38.9247 141.938 39.4602C140.818 39.9957 139.918 40.868 139.198 42.0375H139.078V31.4307H133.437V59.5642H139.078V48.878C139.078 46.7959 139.418 45.3092 140.118 44.3971C140.799 43.485 141.919 43.0492 143.459 43.0492C144.799 43.0492 145.759 43.4655 146.279 44.2975C146.799 45.1301 147.079 46.3796 147.079 48.0644V59.5642H152.72V47.0343C152.72 45.7652 152.6 44.6159 152.38 43.5846C152.16 42.5534 151.759 41.6615 151.199 40.9475ZM121.375 50.8213H121.295L116.455 31.4313H110.614L105.693 50.5835H105.613L101.112 31.4313H94.8721L102.393 59.5648H108.713L113.434 40.412H113.514L118.315 59.5648H124.515L127.915 47.074L132.156 31.4313H126.035L121.375 50.8213Z" fill="white"/>
<path d="M41.9654 76.4951C35.0642 76.4951 28.6237 74.4332 23.2433 70.9243L10.1613 75.0672L14.4019 62.5372C10.3216 56.9854 7.92182 50.1455 7.92182 42.7701C7.92182 24.1729 23.1835 9.04557 41.9456 9.04557C60.7078 9.04557 75.9695 24.1729 75.9695 42.7701C75.9695 61.3666 60.7078 76.4946 41.9456 76.4946H41.9654V76.4951ZM41.9654 2.66113C19.6219 2.66113 1.50048 20.6248 1.50048 42.7706C1.50048 50.3441 3.62079 57.442 7.30086 63.489L0 85.0008L22.4033 77.8834C28.3914 81.1653 35.1229 82.8846 41.9654 82.8796C64.3083 82.8796 82.4303 64.917 82.4303 42.7706C82.4297 20.6248 64.3083 2.66113 41.9654 2.66113Z" fill="white"/>
<path d="M42.4551 8.00879H42.4756C61.9014 8.00879 77.703 23.6753 77.7031 42.9355C77.7031 62.1954 61.9015 77.8633 42.4756 77.8633C35.3098 77.8633 28.6615 75.7487 23.0908 72.0938L9.54688 76.3848L13.9375 63.4072C9.713 57.6575 7.2276 50.5738 7.22754 42.9355C7.22754 23.6752 23.0292 8.00886 42.4551 8.00879ZM29.1641 24.4717C27.8634 24.4717 26.5029 24.8481 25.6826 25.6807C24.6827 26.6919 22.2031 29.0511 22.2031 33.8887C22.2031 38.7265 25.7633 43.4059 26.2432 44.0605C26.7456 44.7177 33.1866 54.7866 43.1855 58.8906C51.0058 62.1022 53.3266 61.8043 55.1064 61.4277C57.7065 60.8727 60.9677 58.969 61.7881 56.6699C62.6083 54.3698 62.6076 52.4067 62.3672 51.9902C62.1273 51.5739 61.4666 51.3362 60.4668 50.8398C59.4661 50.3436 54.6068 47.9648 53.6865 47.6475C52.7861 47.3106 51.9258 47.43 51.2461 48.3818C50.2859 49.7101 49.3463 51.0586 48.5859 51.8711C47.9859 52.5056 47.0052 52.5854 46.1855 52.248C45.0853 51.7926 42.005 50.7207 38.2041 47.3701C35.2637 44.7733 33.2633 41.5417 32.6836 40.5703C32.1038 39.5797 32.6246 39.0036 33.084 38.4688C33.584 37.854 34.0634 37.4179 34.5635 36.8428C35.0635 36.2682 35.3441 35.9709 35.6641 35.2969C36.0044 34.6429 35.7643 33.9684 35.5244 33.4727C35.2845 32.9769 33.2842 28.1393 32.4639 26.1768C31.8039 24.6106 31.3035 24.551 30.3037 24.5107C29.9243 24.4865 29.5443 24.4736 29.1641 24.4717Z" fill="white"/>
</svg>
